<svg xmlns="http://www.w3.org/2000/svg" viewBox="0 0 256 256" width="256" height="256" role="img" aria-label="Concept E: the path of twelve stops">
<title>Concept E: the path of twelve stops</title>

<path d="M40 214C150 214 70 92 186 70" fill="none" stroke="#15121F" stroke-width="10" stroke-linecap="round"/><circle cx="40.0" cy="214.0" r="8" fill="#00C2B2" stroke="#15121F" stroke-width="4"/><circle cx="59.0" cy="212.5" r="8" fill="#00C2B2" stroke="#15121F" stroke-width="4"/><circle cx="77.1" cy="206.9" r="8" fill="#00C2B2" stroke="#15121F" stroke-width="4"/><circle cx="92.2" cy="195.4" r="8" fill="#00C2B2" stroke="#15121F" stroke-width="4"/><circle cx="102.0" cy="179.2" r="8" fill="#FFC61A" stroke="#15121F" stroke-width="4"/><circle cx="108.0" cy="161.2" r="8" fill="#FFC61A" stroke="#15121F" stroke-width="4"/><circle cx="112.6" cy="142.7" r="8" fill="#FFC61A" stroke="#15121F" stroke-width="4"/><circle cx="118.1" cy="124.4" r="8" fill="#FFC61A" stroke="#15121F" stroke-width="4"/><circle cx="126.1" cy="107.2" r="8" fill="#FF5E4D" stroke="#15121F" stroke-width="4"/><circle cx="137.9" cy="92.4" r="8" fill="#FF5E4D" stroke="#15121F" stroke-width="4"/><circle cx="153.3" cy="81.2" r="8" fill="#FF5E4D" stroke="#15121F" stroke-width="4"/><circle cx="170.8" cy="73.8" r="10" fill="#FF5E4D" stroke="#15121F" stroke-width="4"/><path d="M188 30H216A20 20 0 0 1 236 50V66A20 20 0 0 1 216 86H206L196 100L198 86H188A20 20 0 0 1 168 66V50A20 20 0 0 1 188 30Z" fill="#FFC61A" stroke="#15121F" stroke-width="6" stroke-linejoin="round"/>
</svg>
